<svg xmlns="http://www.w3.org/2000/svg" viewBox="0 0 478.64 112.6"><defs><style>.cls-1{fill:#FFF;stroke:none;stroke-miterlimit:10;}.cls-2{fill:none;stroke:#FFF;stroke-width:2px;stroke-miterlimit:10;}</style></defs>
<title>Bem Gen</title>
<path vector-effect="non-scaling-stroke" class="cls-1" d="M273.72,10q-13.86,0-22.31,12.18T243,55.51q0,21.17,8.53,33.19t21.39,12q12.86,0,18-6.62t5.1-19.41V68.6q0-1.83-2.13-1.83h-10.2V64h31.06v2.74h-4.11q-2.13,0-2.13,1.83v5.48a28.66,28.66,0,0,1-9.74,22.31q-9.75,8.76-25,8.76-19.18,0-31.44-13.25T230,55.43q0-23.22,12.11-36.54T273.72,5.57a43.39,43.39,0,0,1,19.79,5,12,12,0,0,0,4.57,1.68q2.28,0,2.44-3.2l.15-2.59h2.89V32.82h-2.74q-1.37-11.72-8.76-17.28T273.72,10Z" transform="translate(-6.45 -1.67)"/>
<path vector-effect="non-scaling-stroke" class="cls-1" d="M320,103.32v-2.74h7.16a1.88,1.88,0,0,0,2.13-2.13V12q0-1.83-2.13-1.83H320V7.39h48.27q12,0,16.9-1.37a85.24,85.24,0,0,0-1.37,17.36v7.16h-3.5L378,15q-.31-3.35-4.26-3.35h-32V53.22h30.6q1.83,0,2.13-2.13l.76-9.44H378V69.06h-2.74l-.76-9.44q-.31-2.13-2.13-2.13h-30.6V99.05h34.1q4,0,4.26-3.35l2.28-17.81h3.5V85q0,13.4,1.37,19.64-4.87-1.37-16.9-1.37Z" transform="translate(-6.45 -1.67)"/>
<path vector-effect="non-scaling-stroke" class="cls-1" d="M470.43,103.32l-57.25-85V98.44a1.88,1.88,0,0,0,2.13,2.13h7.16v2.74H398.72v-2.74h7.16A1.88,1.88,0,0,0,408,98.44V12q0-1.83-2.13-1.83h-7.16V7.39H421.1l49,72.48V12.27A1.88,1.88,0,0,0,468,10.14h-7.16V7.39h23.75v2.74h-7.16q-2.13,0-2.13,1.83v91.36Z" transform="translate(-6.45 -1.67)"/>
<path vector-effect="non-scaling-stroke" class="cls-1" d="M11.24,75.46V73.4h5.37q1.6,0,1.6-1.37V6.84q0-1.37-1.6-1.37H11.24V3.41H38A23.46,23.46,0,0,1,52.69,8.1a14.6,14.6,0,0,1,6.12,12.12,16.9,16.9,0,0,1-3,10,18.75,18.75,0,0,1-8.06,6.46,21.93,21.93,0,0,1,11.72,6.52Q64,48.13,64,56.3A16.94,16.94,0,0,1,57.21,70a25.09,25.09,0,0,1-16.35,5.49ZM35.6,6.61h-8V35.89h8.69q6.75,0,10.06-4.57a17.74,17.74,0,0,0,3.32-10.69,14.79,14.79,0,0,0-3.43-10.06Q42.8,6.61,35.6,6.61Zm4.69,32.14H27.59V72.26H40.29a12.67,12.67,0,0,0,10.69-5,18.9,18.9,0,0,0,3.83-11.78A18.66,18.66,0,0,0,51,43.72,12.73,12.73,0,0,0,40.29,38.75Z" transform="translate(-6.45 -1.67)"/>
<path vector-effect="non-scaling-stroke" class="cls-1" d="M69.68,75.46V73.4h5.37a1.41,1.41,0,0,0,1.6-1.6v-65q0-1.37-1.6-1.37H69.68V3.41h36.25q9,0,12.69-1a64.06,64.06,0,0,0-1,13v5.37H115L113.25,9.13Q113,6.61,110,6.61H86V37.83h23q1.37,0,1.6-1.6l.57-7.09h2.06V49.73h-2.06l-.57-7.09Q110.39,41,109,41H86V72.26h25.62q3,0,3.2-2.52l1.72-13.38h2.63v5.37q0,10.07,1,14.75-3.66-1-12.69-1Z" transform="translate(-6.45 -1.67)"/>
<path vector-effect="non-scaling-stroke" class="cls-1" d="M184.38,75.46V73.4h5.38q1.6,0,1.6-1.37V13.59l-23.9,61.87h-3.89L139.67,15.3V71.8a1.41,1.41,0,0,0,1.6,1.6h5.37v2.06H128.8V73.4h5.37a1.41,1.41,0,0,0,1.6-1.6v-65q0-1.37-1.6-1.37H128.8V3.41h16.35l23.33,59.13L191.36,3.41h16.35V5.47h-5.37a1.42,1.42,0,0,0-1.6,1.6V72q0,1.37,1.6,1.37h5.37v2.06Z" transform="translate(-6.45 -1.67)"/>
<line vector-effect="non-scaling-stroke" class="cls-2" x1="0.87" y1="106.21" x2="201.98" y2="106.33"/>
<line vector-effect="non-scaling-stroke" class="cls-2" x1="0.5" y1="99.95" x2="0.5" y2="112.48"/>
<line vector-effect="non-scaling-stroke" class="cls-2" x1="202.34" y1="100.07" x2="202.34" y2="112.6"/>
</svg>
